<svg width="8" height="15" viewBox="0 0 8 15" fill="none" xmlns="http://www.w3.org/2000/svg">
<path d="M0.689796 7.989H2.22442V14.7581C2.22442 14.8917 2.32549 15 2.45023 15H5.05224C5.17698 15 5.27805 14.8917 5.27805 14.7581V8.02089H7.04223C7.15694 8.02089 7.25345 7.92866 7.26654 7.80658L7.53449 5.31455C7.54185 5.24598 7.52157 5.17732 7.47876 5.12589C7.4359 5.0744 7.37457 5.04494 7.31022 5.04494H5.27814V3.48281C5.27814 3.0119 5.51478 2.77311 5.98157 2.77311C6.04809 2.77311 7.31022 2.77311 7.31022 2.77311C7.43495 2.77311 7.53602 2.66477 7.53602 2.53118V0.243726C7.53602 0.110081 7.43495 0.00179032 7.31022 0.00179032H5.47915C5.46624 0.0011129 5.43756 0 5.39529 0C5.07758 0 3.97325 0.0668225 3.10091 0.926661C2.13437 1.8795 2.26872 3.02037 2.30083 3.21818V5.04489H0.689796C0.56506 5.04489 0.463989 5.15318 0.463989 5.28682V7.74702C0.463989 7.88066 0.56506 7.989 0.689796 7.989Z" fill="#333333"/>
</svg>
