<svg width="14" height="13" viewBox="0 0 14 13" fill="none" xmlns="http://www.w3.org/2000/svg">
<path d="M13.6826 1.77683C13.4627 1.88135 13.2366 1.96956 13.0055 2.04117C13.2791 1.70972 13.4876 1.31972 13.6149 0.892947C13.6435 0.797286 13.6139 0.692576 13.5405 0.630011C13.4672 0.567399 13.3654 0.559899 13.2847 0.611141C12.794 0.922947 12.2646 1.14703 11.7095 1.27806C11.1504 0.692673 10.391 0.359528 9.60588 0.359528C7.94868 0.359528 6.60044 1.80403 6.60044 3.57954C6.60044 3.71938 6.6087 3.85845 6.62505 3.99558C4.56863 3.80212 2.65682 2.71917 1.34398 0.993737C1.29719 0.932237 1.22511 0.899092 1.15132 0.905431C1.07748 0.911624 1.01114 0.956237 0.973836 1.0248C0.707565 1.51433 0.566797 2.07422 0.566797 2.64388C0.566797 3.41977 0.825346 4.15593 1.28206 4.73116C1.14319 4.67962 1.00843 4.61522 0.87981 4.53872C0.810759 4.49754 0.726488 4.49817 0.657888 4.54032C0.589242 4.58246 0.546204 4.65998 0.544397 4.7447C0.544081 4.75898 0.544081 4.77325 0.544081 4.78772C0.544081 5.94587 1.12585 6.98856 2.0153 7.55687C1.93889 7.54869 1.86252 7.53683 1.78665 7.5213C1.70843 7.50529 1.628 7.53466 1.57525 7.59858C1.52241 7.66245 1.50493 7.75148 1.52927 7.83277C1.8585 8.93406 2.70613 9.74411 3.73084 9.99108C2.88095 10.5614 1.90904 10.8602 0.888752 10.8602C0.675862 10.8602 0.461752 10.8468 0.252204 10.8202C0.148107 10.8069 0.0485714 10.8728 0.0131198 10.9789C-0.0223318 11.085 0.0152423 11.2033 0.103804 11.2641C1.41452 12.1645 2.93009 12.6405 4.48657 12.6405C7.54643 12.6405 9.46059 11.0945 10.5275 9.79757C11.858 8.18043 12.621 6.03993 12.621 3.92498C12.621 3.83662 12.6198 3.7474 12.6172 3.65846C13.1421 3.23474 13.5941 2.72193 13.9618 2.13253C14.0177 2.04301 14.0116 1.92471 13.9469 1.8423C13.8823 1.75985 13.7746 1.73319 13.6826 1.77683Z" fill="#333333"/>
</svg>
